<?xml version="1.0" encoding="UTF-8" standalone="no"?>
<!-- Created with Inkscape (http://www.inkscape.org/) -->

<svg
   width="77.5093mm"
   height="111.51301mm"
   viewBox="0 0 77.5093 111.51301"
   version="1.1"
   id="svg1"
   inkscape:version="1.4.2 (ebf0e940, 2025-05-08)"
   sodipodi:docname="favicon.svg"
   xmlns:inkscape="http://www.inkscape.org/namespaces/inkscape"
   xmlns:sodipodi="http://sodipodi.sourceforge.net/DTD/sodipodi-0.dtd"
   xmlns="http://www.w3.org/2000/svg"
   xmlns:svg="http://www.w3.org/2000/svg">
  <sodipodi:namedview
     id="namedview1"
     pagecolor="#ffffff"
     bordercolor="#000000"
     borderopacity="0.25"
     inkscape:showpageshadow="2"
     inkscape:pageopacity="0.0"
     inkscape:pagecheckerboard="0"
     inkscape:deskcolor="#d1d1d1"
     inkscape:document-units="mm"
     inkscape:zoom="0.71891835"
     inkscape:cx="397.12437"
     inkscape:cy="227.42499"
     inkscape:window-width="1920"
     inkscape:window-height="956"
     inkscape:window-x="0"
     inkscape:window-y="25"
     inkscape:window-maximized="1"
     inkscape:current-layer="layer1">
    <inkscape:page
       x="0"
       y="0"
       width="77.5093"
       height="111.51301"
       id="page1"
       margin="0 132.12268 0 0"
       bleed="0" />
  </sodipodi:namedview>
  <defs
     id="defs1" />
  <g
     inkscape:label="Layer 1"
     inkscape:groupmode="layer"
     id="layer1">
    <g
       id="g129"
       transform="matrix(0.30327131,0,0,0.30327131,-122.93658,-95.702653)"
       style="display:inline;mix-blend-mode:normal;stroke-width:0.999539;stroke-dasharray:none">
      <path
         stroke="#562824"
         d="m 433.57214,490.10261 c 9.01,11.63 23.2,18.11 37.29,21.4 7.85,1.83 15.46,6.36 20.15,12.36 q 3.73,4.78 4.7,12.59"
         data-c-stroke="867b72"
         stroke-opacity="1"
         id="path1"
         style="fill:none;stroke-width:0.999539;stroke-linecap:butt;stroke-dasharray:none" />
      <path
         stroke="#562824"
         d="m 495.71214,536.45261 q -0.39,2.37 -0.43,4.81 -0.06,3.29 -0.46,4.8 c -1.61,6.11 -4.58,11.34 -10.26,14.3 a 5.39,5.39 0 0 1 -1.65,0.55 q -1.48,0.24 -9.19,0.44 -5.69,0.15 -10.32,4.32 a 4.04,4.09 72.6 0 0 -1.31,2.47 l -0.04,0.34 a 0.7,0.7 0 0 0 1.08,0.68 q 4.78,-3.16 9.08,-3.2 16.04,-0.14 16.9,-0.16 c 6.31,-0.12 10.83,0.84 15.88,3.17 a 0.77,0.77 0 0 0 1.07,-0.51 c 1.13,-4.33 -6.59,-7.98 -9.85,-8.78 a 0.21,0.21 0 0 1 -0.06,-0.39 q 7.48,-4.62 14.83,-10.07 c 7.89,-5.85 10.57,-16.93 9.23,-26.28 q -0.34,-2.32 -1.75,-7.77 c -1.59,-6.15 17.77,-5.12 22.16,-5.15 a 0.7,0.7 0 0 0 0.4,-1.26 q -3.91,-2.84 -9.61,-4.11 c -8.65,-1.93 -17.44,-1.73 -26.57,-3.31 q -5.4,-0.94 -10.71,-1.8"
         data-c-stroke="a5897f"
         stroke-opacity="1"
         id="path2"
         style="fill:none;stroke-width:0.999539;stroke-linecap:butt;stroke-dasharray:none" />
      <path
         stroke="#562824"
         d="m 494.13214,499.54261 q -18.66,-3.21 -33.2,-13.5"
         data-c-stroke="867b72"
         stroke-opacity="1"
         id="path3"
         style="fill:none;stroke-width:0.999539;stroke-linecap:butt;stroke-dasharray:none" />
      <path
         stroke="#562824"
         d="m 460.93214,486.04261 q -10.6,-9.82 -12.51,-24.14 c -1.51,-11.42 6.04,-21.58 16.28,-25.74 a 0.14,0.14 0 0 1 0.14,0.23 q -0.73,0.62 -2.51,1.89 c -11.75,8.4 -12.62,22.69 -4.14,33.89 q 1.95,2.58 6.39,7.6 c 5.97,6.73 16.36,11.09 25.49,13.27 q 9.79,2.34 19.03,3.86 7.87,1.29 19.32,1.53 14.76,0.32 22.92,0.36 a 0.64,0.64 0 0 0 0.27,-1.23 l -8.68,-3.89"
         data-c-stroke="a5897f"
         stroke-opacity="1"
         id="path4"
         style="fill:none;stroke-width:0.999539;stroke-linecap:butt;stroke-dasharray:none" />
      <path
         stroke="#562824"
         d="m 542.93214,493.67261 -48.68,-19.96"
         data-c-stroke="867b72"
         stroke-opacity="1"
         id="path5"
         style="fill:none;stroke-width:0.999539;stroke-linecap:butt;stroke-dasharray:none" />
      <path
         stroke="#562824"
         d="m 494.25214,473.71261 -8.66,-6.49 a 0.43,0.42 71.4 0 1 0.37,-0.75 l 20.72,6.1"
         data-c-stroke="a5897f"
         stroke-opacity="1"
         id="path6"
         style="fill:none;stroke-width:0.999539;stroke-linecap:butt;stroke-dasharray:none" />
      <path
         stroke="#562824"
         d="m 506.68214,472.57261 q 21.9,6.51 42.52,17.74"
         data-c-stroke="867b72"
         stroke-opacity="1"
         id="path7"
         style="fill:none;stroke-width:0.999539;stroke-linecap:butt;stroke-dasharray:none" />
      <path
         stroke="#562824"
         d="m 549.20214,490.31261 10.54,6.78 a 1.0301092,1.0301092 0 0 0 1.26,-1.63 l -8.78,-8.09"
         data-c-stroke="a5897f"
         stroke-opacity="1"
         id="path8"
         style="fill:none;stroke-width:0.999539;stroke-linecap:butt;stroke-dasharray:none" />
      <path
         stroke="#562824"
         d="m 552.22214,487.37261 q -6.45,-7.11 -11.06,-10.65 -12.53,-9.62 -30.16,-18.29"
         data-c-stroke="867b72"
         stroke-opacity="1"
         id="path9"
         style="fill:none;stroke-width:0.999539;stroke-linecap:butt;stroke-dasharray:none" />
      <path
         stroke="#562824"
         d="m 511.00214,458.43261 q -5.73,-3.35 -12.11,-5.04 a 0.24,0.25 3.3 0 1 -0.18,-0.21 l -0.05,-0.32 a 0.45,0.45 0 0 1 0.52,-0.51 l 14.92,2.68"
         data-c-stroke="a5897f"
         stroke-opacity="1"
         id="path10"
         style="fill:none;stroke-width:0.999539;stroke-linecap:butt;stroke-dasharray:none" />
      <path
         stroke="#562824"
         d="m 514.10214,455.03261 q 7.52,2.01 12.37,4.62 13.74,7.37 25.76,19.78"
         data-c-stroke="867b72"
         stroke-opacity="1"
         id="path11"
         style="fill:none;stroke-width:0.999539;stroke-linecap:butt;stroke-dasharray:none" />
      <path
         stroke="#562824"
         d="m 552.23214,479.43261 c 8.31,8.96 17.64,18.84 29.15,20.31 5.72,0.73 9.54,-1.24 13.64,-5.08 a 0.73,0.73 0 0 0 -0.52,-1.26 c -3.6,0.09 -7.68,0.38 -10.74,-0.4 q -5.65,-1.44 -10.38,-5.28 c -8.91,-7.22 -14.64,-16.32 -22.48,-27.49 q -5.13,-7.3 -12.7,-14.05 c -16.89,-15.09 -43.75,-21.54 -65.86,-18.64 -7.28,0.96 -14.76,3.2 -18.78,-4.88 q -5.23,-10.53 -2.74,-22.41 0.94,-4.47 5.14,-7.85"
         data-c-stroke="a5897f"
         stroke-opacity="1"
         id="path12"
         style="fill:none;stroke-width:0.999539;stroke-linecap:butt;stroke-dasharray:none" />
      <path
         stroke="#562824"
         d="m 455.96214,392.40261 q 4.87,-2.81 9.74,-2.6 7.65,0.34 13.2,-1.04 7.79,-1.93 8.46,-1.94 7.45,-0.22 13.94,3.9 a 1.21,1.21 0 0 0 1.86,-1.06 l -0.02,-0.6"
         data-c-stroke="867b72"
         stroke-opacity="1"
         id="path13"
         style="fill:none;stroke-width:0.999539;stroke-linecap:butt;stroke-dasharray:none" />
      <path
         stroke="#562824"
         d="m 503.14214,389.06261 q -0.05,-3.36 -2.91,-5.7 -3.04,-2.5 -11.24,-8.99 -1.79,-1.42 -4.11,-3.85 -4.15,-4.36 -10.72,-4.03 a 1.25,1.25 0 0 1 -1.31,-1.17 c -0.36,-5.95 1.06,-17.51 7.26,-20.76 a 3.61,3.54 27.8 0 1 1.3,-0.39 q 2.02,-0.21 2.66,-0.22 c 2.89,-0.03 5.47,-2.58 5.59,-5.28 0.33,-7.86 -10.05,-10.22 -13.22,-3.29 q -2.18,4.77 -5.98,19.25 c -0.69,2.63 -0.51,6.15 -1.38,9.05 a 0.33,0.33 0 0 1 -0.64,-0.04 l -2.33,-15.88 a 3.86,3.81 47.2 0 1 0.04,-1.29 q 0.96,-4.59 3.14,-9.15 1.41,-2.92 0.99,-5.66 a 3.41,3.84 2.5 0 0 -2.47,-3.04 c -4.78,-1.42 -10.12,0.43 -8.46,6.55 1.14,4.23 2.32,6.39 2.95,10.87 q 1.11,8.03 3.11,16.59 a 0.46,0.46 0 0 1 -0.44,0.56 q -0.14,0 -0.41,-0.34 -4.96,-6.25 -8.5,-15.75 c -0.63,-1.7 -2.32,-10.01 -5.01,-11.46 -8.99,-4.83 -14.14,9.22 -4.52,11.15 q 2.62,0.53 3.6,1.32 c 4.45,3.55 7.72,10.65 9.66,13.46 1.04,1.51 2.48,2.72 3.19,3.78 a 0.42,0.43 66.6 0 1 -0.26,0.65 c -25.74,5.9 -39.58,37.82 -43,61.36 -0.84,5.77 -0.4,11.51 -0.75,16.4 q -0.42,5.87 0.52,12.28 2.77,18.93 14.08,34.06"
         data-c-stroke="a5897f"
         stroke-opacity="1"
         id="path14"
         style="fill:none;stroke-width:0.999539;stroke-linecap:butt;stroke-dasharray:none" />
      <path
         stroke="#562824"
         d="m 503.14214,389.06261 q -3.07,0.53 -6.15,-1.53 a 3.04,3.01 69 0 0 -0.93,-0.42 q -6.7,-1.79 -13.59,-0.15 -6.37,1.51 -7.72,1.62 -4.42,0.33 -7.93,0.26 -0.02,0 -5.48,0.62 -3.85,0.44 -5.38,2.94 m 96.27,87.03 q 0.58,-1.26 -1.64,-3.15 -10.98,-9.34 -12.1,-10.18 c -4.56,-3.43 -10.99,-7.01 -15.28,-9.15 q -4.39,-2.18 -9.11,-1.92 m -3.1,3.4 q 3.83,2.83 13.05,7.85 3.41,1.86 13.54,8.99 c 5.09,3.58 8.3,7.25 13.74,12.48 q 0.3,0.29 0.66,0.11 0.22,-0.1 0.23,-0.49 m -3.02,2.94 q -11.78,-8.06 -20.63,-11.28 -10.33,-3.75 -20.77,-7.04 -0.63,-0.2 -1.18,0.16 -0.15,0.11 0.06,0.42 m -12.43,1.14 q 3.03,2.68 7.72,4.38 6.05,2.19 24.08,9.18 4.51,1.75 8.1,3.58 2.4,1.22 8.02,3.77 0.45,0.2 0.74,-0.14 0.26,-0.29 0.02,-0.81 m -82,-7.63 q -0.57,-0.22 -0.6,-0.03 -0.09,0.47 0.29,0.75 15.16,11.44 33.51,12.78 m 1.58,36.91 q 0.52,-6.64 -3.44,-12.34 c -3.78,-5.44 -9.93,-9.2 -16,-12.08 a 4.33,4.53 65.5 0 0 -0.92,-0.32 q -8.78,-2.11 -10.47,-2.68 -8.05,-2.67 -14.64,-6.17 -3.43,-1.82 -8.58,-6.05 -3.97,-3.27 -8.09,-6.71"
         data-c-stroke="371a17"
         stroke-opacity="1"
         id="path15"
         style="fill:none;stroke-width:0.999539;stroke-linecap:butt;stroke-dasharray:none" />
      <path
         stroke="#562824"
         d="m 593.40214,542.46261 c 4.22,5.99 9.94,11.02 16.87,13.5 6.3,2.24 13.41,1.7 19.86,2.5"
         data-c-stroke="867b72"
         stroke-opacity="1"
         id="path16"
         style="fill:none;stroke-width:0.999539;stroke-linecap:butt;stroke-dasharray:none" />
      <path
         stroke="#562824"
         d="m 630.13214,558.46261 q 2.26,0.91 4.81,0.77 a 0.62,0.62 0 0 0 0.43,-1.03 c -2.68,-3.01 -3.39,-8.16 -4.44,-11.29 a 0.59,0.59 0 0 1 0.9,-0.67 l 2.43,1.69 a 0.53,0.54 17 0 0 0.84,-0.45 q -0.15,-6.94 -4.14,-12.85 c -10.85,-16.12 -28.77,-19.57 -46.16,-24.61 -6.93,-2.01 -12.4,-4.45 -18.24,-7.57 a 0.99,0.99 0 0 0 -1.3,1.41 q 2.71,4.26 7.26,8.77 0.45,0.44 5.86,7.2 2.29,2.86 5.1,7.68 c 3.6,6.15 5.81,10.2 9.92,14.95"
         data-c-stroke="a5897f"
         stroke-opacity="1"
         id="path17"
         style="fill:none;stroke-width:0.999539;stroke-linecap:butt;stroke-dasharray:none" />
      <path
         stroke="#562824"
         d="m 630.13214,558.46261 q 0.79,0.07 0.83,-0.01 a 0.62,0.62 0 0 0 -0.51,-0.89 l -15.03,-1.21 a 4.67,4.73 56 0 1 -0.96,-0.18 c -3.28,-1.04 -5.8,-1.43 -8.79,-3.22 q -6.71,-4.03 -11.07,-10.62 -0.42,-0.63 -1.02,-0.35 -0.11,0.06 -0.18,0.48"
         data-c-stroke="371a17"
         stroke-opacity="1"
         id="path18"
         style="fill:none;stroke-width:0.999539;stroke-linecap:butt;stroke-dasharray:none" />
      <path
         stroke="#562824"
         d="m 546.21214,507.69261 c 6.2,5.17 9.95,12.92 11.69,20.54 q 0.87,3.79 0.84,13.45 -0.03,9.43 0.16,13.5 c 0.62,13.04 9.08,25.69 19.23,33.67 a 1.79,1.79 0 0 0 2.29,-0.06 q 7.14,-6.27 9.42,-14.93 1.87,-7.12 1.74,-10.47 -0.66,-16.92 -9.4,-28.77 -5.99,-8.13 -12.31,-13.61 c -3.89,-3.38 -18.91,-16.14 -23.38,-14.74 a 0.83,0.82 56.3 0 0 -0.28,1.42"
         data-c-stroke="a5897f"
         stroke-opacity="1"
         id="path19"
         style="fill:none;stroke-width:0.999539;stroke-linecap:butt;stroke-dasharray:none" />
      <path
         stroke="#562824"
         d="m 528.25214,588.99261 c 12.73,-4.82 24.7,-15.97 24.85,-30.56 q 0.05,-4.62 -0.05,-9.2"
         data-c-stroke="867b72"
         stroke-opacity="1"
         id="path20"
         style="fill:none;stroke-width:0.999539;stroke-linecap:butt;stroke-dasharray:none" />
      <path
         stroke="#562824"
         d="m 553.05214,549.23261 c -1.12,-10.23 -3.56,-21.01 -9.58,-29.78 q -1.02,-1.48 -2.55,-1.54 a 0.82,0.82 0 0 0 -0.84,0.94 l 0.83,5.68 a 1.9,1.73 48.7 0 1 -0.01,0.57 q -0.92,4.77 -3.24,8.35 -5.48,8.45 -14.01,16.13 -8.14,7.33 -10.33,17.13 -1.07,4.78 -1.36,11.44 c -0.13,2.98 -0.98,6.59 -1.93,9.15 q -0.57,1.53 -2.47,2.35 a 0.32,0.32 0 0 0 -0.04,0.56 q 1.42,0.88 4.66,0.87 9.27,-0.03 16.07,-2.09"
         data-c-stroke="a5897f"
         stroke-opacity="1"
         id="path21"
         style="fill:none;stroke-width:0.999539;stroke-linecap:butt;stroke-dasharray:none" />
      <path
         stroke="#562824"
         d="m 553.05214,549.23261 q -0.32,-0.13 -0.34,-0.15 a 0.23,0.23 0 0 0 -0.4,0.16 q -0.16,6.19 -0.04,9.09 c 0.6,13.84 -12.41,25.06 -24,29.82 -0.18,0.08 -0.24,0.22 -0.3,0.36 a 0.17,0.19 29.1 0 0 0.05,0.21 q 0.1,0.08 0.23,0.27"
         data-c-stroke="371a17"
         stroke-opacity="1"
         id="path22"
         style="fill:none;stroke-width:0.999539;stroke-linecap:butt;stroke-dasharray:none" />
      <path
         stroke="#562824"
         d="m 644.15214,634.13261 a 0.39,0.39 0 0 0 0.31,-0.63 l -1.67,-2.1 a 0.65,0.63 25.7 0 1 -0.15,-0.41 q -0.27,-7.18 0.41,-11.25 c 1.75,-10.41 2.5,-20.3 -1.91,-29 q -3.67,-7.23 -10.44,-13.01 -3.48,-2.98 -11.1,-6.13 c -7.88,-3.26 -14.38,-6.36 -20.81,-10.18 a 0.68,0.68 0 0 0 -1.01,0.43 c -1.43,6.43 -1.12,12.76 -1.06,19.71 0.07,7.55 1.71,14.94 3.79,22.11 q 3.58,12.39 13.14,20.44 c 8.32,7.01 19.64,9.96 30.5,10.02 m -94.48,-52.12 c -3.26,2.34 -6.57,5.41 -9.4,7.43 -8.58,6.13 -18.21,10.24 -26.99,15.84 q -14.26,9.08 -15.82,26.18 c -0.32,3.53 0.26,8.42 -0.77,12.59 -0.89,3.6 -1.54,5.94 -4.15,8.05 a 0.36,0.35 26.7 0 0 0.21,0.63 q 13.52,0.68 26.11,-2.18 6.12,-1.4 10.75,-3.72 7.5,-3.75 11.19,-10.08"
         data-c-stroke="a5897f"
         stroke-opacity="1"
         id="path23"
         style="fill:none;stroke-width:0.999539;stroke-linecap:butt;stroke-dasharray:none" />
      <path
         stroke="#562824"
         d="m 540.80214,636.75261 q 4.51,-5.78 7.34,-12.86 4.19,-10.52 7.27,-19 c 3.51,-9.67 4.85,-18.38 4.19,-27.98 -0.13,-2.01 -0.89,-3.85 -1.55,-5.64 a 0.54,0.55 48.7 0 0 -0.99,-0.06 q -3.05,5.73 -7.39,10.8"
         data-c-stroke="867b72"
         stroke-opacity="1"
         id="path24"
         style="fill:none;stroke-width:0.999539;stroke-linecap:butt;stroke-dasharray:none" />
      <path
         stroke="#562824"
         d="m 540.80214,636.75261 q 2.03,-4.02 3.99,-7.82 2.37,-4.59 3.68,-7.94 5.95,-15.19 7.41,-19.86 3.56,-11.33 2.94,-23.45 -0.11,-2.32 -1.12,-4.27 a 0.51,0.51 0 0 0 -0.91,0 q -2.66,5.14 -7.12,8.6"
         data-c-stroke="371a17"
         stroke-opacity="1"
         id="path25"
         style="fill:none;stroke-width:0.999539;stroke-linecap:butt;stroke-dasharray:none" />
      <path
         stroke="#562824"
         d="m 555.87214,630.11261 c -0.39609,1.41587 -1.35,11.22667 0.97,16.66 1.89333,4.43333 4.76333,9.39667 8.61,14.89 2.19,3.12 4.03,6.09 5.46,9.29 0.20051,0.43918 0.81121,0.47374 1.06,0.06 2.92,-4.77 5.86,-7.81 10.34,-11.41 10.16,-8.15 18.05,-15.41 17.31,-29.66 -0.46667,-9 -2.26667,-17.60667 -5.4,-25.82 -2.7,-7.06667 -4.06,-10.64 -4.08,-10.72 -0.24653,-0.81305 -1.32571,-0.97907 -1.82,-0.28 l -4.83,6.93 c -0.19381,0.28188 -0.23502,0.64159 -0.11,0.96 3.08667,7.74 4.96333,13.83667 5.63,18.29 0.95,6.28 1.03012,14.71351 -2.24,19.37"
         data-c-stroke="a5897f"
         stroke-opacity="1"
         id="path26"
         style="fill:none;stroke-width:0.999539;stroke-linecap:butt;stroke-dasharray:none"
         sodipodi:nodetypes="cccccccccccccc" />
      <path
         stroke="#562824"
         d="m 586.77214,638.67261 q -3.37,4.83 -8.87,6.52 c -9.99,3.07 -12.51,-11.34 -11.35,-17.79 q 2.67,-14.77 9.9,-27.46 a 1.61,1.6 40.7 0 0 -0.14,-1.81 l -6.64,-8.36 a 0.47,0.46 31.2 0 0 -0.82,0.2 c -1.74,8.82 -4.81,14.94 -9.41,25.44 q -3.1,7.06 -3.57,14.7"
         data-c-stroke="867b72"
         stroke-opacity="1"
         id="path27"
         style="fill:none;stroke-width:0.999539;stroke-linecap:butt;stroke-dasharray:none" />
      <path
         stroke="#562824"
         d="m 586.77214,638.67261 c 0.12667,-0.0133 0.84355,-1.63723 0.89022,-1.63056 0.35593,0.0478 -1.08535,1.89577 -1.29056,2.1905 -3.33334,4.66666 -6.79299,7.23006 -12.35966,7.33006 -0.33481,0.007 -0.66462,-0.069 -0.96,-0.22 -1.9,-0.94 -3.29667,-2.12667 -4.19,-3.56 -3.63,-5.81 -4.38,-11.34 -2.67,-18.54 2.07333,-8.74667 5.09,-16.64 9.05,-23.68 0.49034,-0.87664 0.40347,-1.96247 -0.22,-2.75 l -4.42,-5.55 c -0.40489,-0.50576 -1.21293,-0.33596 -1.38,0.29 -1.82,7.08 -4.52333,14.02333 -8.11,20.83 -1.64,3.11333 -3.23836,8.07425 -5.26251,16.79752"
         data-c-stroke="371a17"
         stroke-opacity="1"
         id="path28"
         style="fill:none;stroke-width:0.999539;stroke-linecap:butt;stroke-dasharray:none"
         sodipodi:nodetypes="ccccccccccccc" />
      <path
         stroke="#562824"
         d="m 577.68214,634.24261 c 2.4333,0.23333 4.37,-0.75667 5.81,-2.97 3.96,-6.1 0.71,-14.32 -2.89,-20.28 -0.2733,-0.45333 -0.4867,-0.68667 -0.64,-0.7 -0.1467,-0.0133 -0.4,0.17667 -0.76,0.57 -4.65,5.17 -9.4,12.63 -6.66,19.37 0.9933,2.44 2.7067,3.77667 5.14,4.01"
         data-c-stroke="867b72"
         stroke-opacity="1"
         id="path29"
         style="fill:none;stroke-width:0.999539;stroke-linecap:butt;stroke-dasharray:none"
         sodipodi:nodetypes="ccccccc" />
      <path
         stroke="#562824"
         d="m 498.09214,512.45261 q -0.18,1.42 0.05,1.82 2.04,3.54 3.01,7.53 a 5.53,5.5 40.4 0 1 0.14,1.68 q -0.63,9.47 0.26,19.1"
         data-c-stroke="371a17"
         stroke-opacity="1"
         id="path58"
         style="fill:none;stroke-width:0.999539;stroke-linecap:butt;stroke-dasharray:none" />
      <path
         stroke="#562824"
         d="m 501.55214,542.58261 -0.79,5.03 a 0.19,0.19 0 0 0 0.31,0.17 c 7.15,-5.74 11.25,-11.73 11.75,-21.05 0.51,-9.7 -6.61,-14.06 -15.12,-16.06 a 0.36,0.36 0 0 0 -0.39,0.54 l 0.78,1.24"
         data-c-stroke="a5897f"
         stroke-opacity="1"
         id="path59"
         style="fill:none;stroke-width:0.999539;stroke-linecap:butt;stroke-dasharray:none" />
      <path
         stroke="#562824"
         d="m 501.55214,542.58261 q 1.22,-11.86 0.61,-19.64 -0.41,-5.06 -4.07,-10.49"
         data-c-stroke="867b72"
         stroke-opacity="1"
         id="path60"
         style="fill:none;stroke-width:0.999539;stroke-linecap:butt;stroke-dasharray:none" />
      <path
         stroke="#562824"
         d="m 581.44214,514.77261 q 1.66,2.72 13.77,19.99 c 4.13,5.89 9.48,11.96 17.27,12.57 q 7.45,0.58 7.65,-6.98 0.26,-9.74 -8.4,-14.71 -11.07,-6.36 -29.86,-11.45 a 0.39,0.39 0 0 0 -0.43,0.58 m -16.98,9.13 q 0.09,2.4 1.31,11.55 c 0.52,3.94 -0.03,8.68 -0.27,13.93 q -0.17,3.98 0.44,6.58 c 1.44,6.12 4.83,10.91 11.14,12.64 q 1.66,0.45 3.64,-1.64 4.27,-4.49 3.67,-10.65 c -1.2,-12.39 -10.16,-24.94 -19.47,-32.64 a 0.28,0.28 0 0 0 -0.46,0.23"
         data-c-stroke="a5897f"
         stroke-opacity="1"
         id="path61"
         style="fill:none;stroke-width:0.999539;stroke-linecap:butt;stroke-dasharray:none" />
      <path
         stroke="#562824"
         d="m 599.68214,524.97261 a 1.34,1.25 81 0 0 -0.96,1.41 c 0.52,5.41 3.21,11.25 8.36,13.53 3.26,1.44 6.76,0.02 7.11,-3.69 0.54,-5.85 -7.88,-9.56 -12.72,-11.03 q -1.19,-0.37 -1.79,-0.22 m -56.93,12.18 q -1.65,3.24 -4.46,6.38 c -5.9,6.58 -10.12,10.51 -13.25,16.87 q -3.37,6.85 2.05,14.49 a 1.73,1.75 74.3 0 0 1.32,0.73 q 10.02,0.58 14.82,-8.78 c 4.8,-9.37 3.5,-20.05 0.29,-29.63 a 0.42,0.42 0 0 0 -0.77,-0.06 m 29.92,3.15 c -3.16,0.93 -3.37,12.23 -3.1,15.36 0.44,5.2 7.17,7.8 9.69,2.33 q 1.25,-2.68 0.97,-4.33 -1.24,-7.34 -6.51,-13.07 a 1.03,1.01 59.8 0 0 -1.05,-0.29"
         data-c-stroke="a5897f"
         stroke-opacity="1"
         id="path62"
         style="fill:none;stroke-width:0.999539;stroke-linecap:butt;stroke-dasharray:none" />
      <path
         stroke="#562824"
         d="m 538.48214,551.70261 q -0.63,0.1 -1.62,0.91 c -4.01,3.28 -10.55,10.09 -7.76,15.43 1.78,3.38 5.66,3.36 8.19,0.72 3.99,-4.17 4.27,-10.76 2.65,-16.09 a 1.38,1.29 76.7 0 0 -1.46,-0.97"
         data-c-stroke="a5897f"
         stroke-opacity="1"
         id="path63"
         style="fill:none;stroke-width:0.999539;stroke-linecap:butt;stroke-dasharray:none" />
      <path
         stroke="#562824"
         d="m 602.83214,574.28261 q -0.39,6.91 1.24,13.43 2.48,9.96 5.73,16.12 4.07,7.75 10.12,10.39 0.18,0.08 3.15,1.06 c 2.19,0.73 4.99,2.13 6.37,0.16 q 2.44,-3.49 4.5,-7.97 a 2,1.98 54.5 0 0 0.17,-1.05 q -0.19,-2 0.31,-3.84 0.48,-1.8 -0.03,-4.26 -2.7,-13.05 -14.47,-19.38 -3.31,-1.79 -6.13,-2.79 -2.56,-0.91 -9.79,-2.72 a 0.94,0.93 8.7 0 0 -1.17,0.85"
         data-c-stroke="371a17"
         stroke-opacity="1"
         id="path64"
         style="fill:none;stroke-width:0.999539;stroke-linecap:butt;stroke-dasharray:none" />
      <path
         stroke="#562824"
         d="m 548.01214,595.46261 q 0.1,-1.18 -0.57,-1.31"
         data-c-stroke="a5897f"
         stroke-opacity="1"
         id="path65"
         style="fill:none;stroke-width:0.999539;stroke-linecap:butt;stroke-dasharray:none" />
      <path
         stroke="#562824"
         d="m 547.44214,594.15261 q 0.19,-0.37 0.01,-0.5 -0.35,-0.27 -0.73,-0.01 c -7.57,5.13 -13.8,8.39 -20.83,12.51 q -8.3,4.87 -9.77,6.25 c -7.23,6.79 -6.89,14.79 -4.86,24.26 a 1.77,1.79 14.7 0 0 0.56,0.97 q 1.06,0.96 3.14,0.98 c 7.66,0.09 15.97,-3.21 20.75,-9.64 q 3.41,-4.59 5.02,-8.96 2.9,-7.85 3.56,-9.46 2.94,-7.16 4.05,-13.68 0.16,-0.94 -0.33,-1.41"
         data-c-stroke="371a17"
         stroke-opacity="1"
         id="path66"
         style="fill:none;stroke-width:0.999539;stroke-linecap:butt;stroke-dasharray:none" />
      <path
         stroke="#562824"
         d="m 547.44214,594.15261 q -9.45,6.38 -19.47,11.86 -8.8,4.81 -11.34,7.12 -4.68,4.24 -5.24,10.25 -0.6,6.63 0.72,13 a 1.9,1.91 83.9 0 0 1.88,1.51 q 17.91,-0.18 25.04,-16.08 3.62,-8.08 7.9,-21.09 a 0.05,0.37 8 0 0 0.02,-0.07 l 1.06,-5.19 m 55.63,-20.4 q -0.2,1.73 0.13,4.12 1.34,9.7 4.97,19.51 c 3.74,10.1 8.33,15.57 19.04,16.82 a 0.92,0.89 19.2 0 0 0.86,-0.4 q 2.97,-4.51 3.51,-5.47 2.57,-4.54 1.71,-9.69 -2.2,-13.11 -12.9,-19.17 -2.42,-1.37 -7.88,-3.72 -4.62,-2 -8.29,-2.82 a 0.95,0.95 0 0 0 -1.15,0.82"
         data-c-stroke="867b72"
         stroke-opacity="1"
         id="path67"
         style="fill:none;stroke-width:0.999539;stroke-linecap:butt;stroke-dasharray:none" />
      <path
         stroke="#562824"
         d="m 623.87214,604.17261 q 2.8,-1.5 2.93,-4.76 c 0.3,-7.26 -6.06,-11.91 -12.78,-14.36 -0.12,-0.04 -0.28,0.01 -0.36,0.06 -0.09,0.04 -0.22,0.15 -0.25,0.27 -1.68,6.95 -1.33,14.82 4.88,18.6 q 2.78,1.69 5.58,0.19 m -88.4,3.84 q -8.6,2.75 -13.95,7.92 c -2.18,2.11 -4.62,7 -2.54,9.99 q 1.27,1.82 2.24,2.05 6.45,1.52 10.5,-3.8 5.27,-6.92 4.25,-15.84 a 0.39,0.38 77.1 0 0 -0.5,-0.32"
         data-c-stroke="a5897f"
         stroke-opacity="1"
         id="path68"
         style="fill:none;stroke-width:0.999539;stroke-linecap:butt;stroke-dasharray:none" />
      <path
         stroke="#562824"
         d="m 572.99214,628.91261 c 1.49,5.83 7.83,5.88 10.46,1.04 0.66,-1.20667 1.2425,-3.86063 1.1225,-8.18063 0.0649,0.93426 0.0206,0.19336 -0.0862,-0.84358 -0.25974,-2.98319 -2.26759,-5.72711 -3.90625,-8.42579 -0.21943,-0.5164 -0.87606,-0.6691 -1.29,-0.3 -3.14,2.79333 -5.23667,6.38333 -6.29,10.77 -0.49333,2.06667 -0.49667,4.04667 -0.01,5.94"
         data-c-stroke="371a17"
         stroke-opacity="1"
         id="path69"
         style="fill:#562824;fill-opacity:1;stroke-width:0.999539;stroke-linecap:butt;stroke-dasharray:none"
         sodipodi:nodetypes="cccccccc" />
      <path
         fill="#562824"
         d="m 503.14214,389.06261 c -2.04667,0.35333 -4.09667,-0.15667 -6.15,-1.53 -0.2845,-0.19189 -0.59898,-0.33391 -0.93,-0.42 -4.46667,-1.19333 -8.99667,-1.24333 -13.59,-0.15 -4.24667,1.00667 -6.82,1.54667 -7.72,1.62 -2.94667,0.22 -5.59,0.30667 -7.93,0.26 -0.0133,0 -1.84,0.20667 -5.48,0.62 -2.56667,0.29333 -4.36,1.27333 -5.38,2.94 -2.8,2.25333 -4.51333,4.87 -5.14,7.85 -1.66,7.92 -0.74667,15.39 2.74,22.41 4.02,8.08 11.5,5.84 18.78,4.88 22.11,-2.9 48.97,3.55 65.86,18.64 5.04667,4.5 9.28,9.18333 12.7,14.05 7.84,11.17 13.57,20.27 22.48,27.49 3.15333,2.56 6.61333,4.32 10.38,5.28 3.06,0.78 7.14,0.49 10.74,0.4 0.66882,-0.0167 1.00594,0.80015 0.52,1.26 -4.1,3.84 -7.92,5.81 -13.64,5.08 -11.51,-1.47 -20.84,-11.35 -29.15,-20.31 0.38667,-0.84 -0.16,-1.89 -1.64,-3.15 -7.32,-6.22667 -11.35333,-9.62 -12.1,-10.18 -4.56,-3.43 -10.99,-7.01 -15.28,-9.15 -2.92667,-1.45333 -5.96333,-2.09333 -9.11,-1.92 l -14.92,-2.68 c -0.30162,-0.0509 -0.56505,0.20745 -0.52,0.51 l 0.05,0.32 c 0.0125,0.10215 0.084,0.18553 0.18,0.21 4.25333,1.12667 8.29,2.80667 12.11,5.04 2.55333,1.88667 6.90333,4.50333 13.05,7.85 2.27333,1.24 6.78667,4.23667 13.54,8.99 5.09,3.58 8.3,7.25 13.74,12.48 0.2,0.19333 0.42,0.23 0.66,0.11 0.14667,-0.0667 0.22333,-0.23 0.23,-0.49 l 8.78,8.09 c 1.08667,0.84 -0.17333,2.47 -1.26,1.63 l -10.54,-6.78 c -7.85333,-5.37333 -14.73,-9.13333 -20.63,-11.28 -6.88667,-2.5 -13.81,-4.84667 -20.77,-7.04 -0.42,-0.13333 -0.81333,-0.08 -1.18,0.16 -0.1,0.0733 -0.08,0.21333 0.06,0.42 l -20.72,-6.1 c -0.45016,-0.14036 -0.74562,0.45854 -0.37,0.75 l 8.66,6.49 c 2.02,1.78667 4.59333,3.24667 7.72,4.38 4.03333,1.46 12.06,4.52 24.08,9.18 3.00667,1.16667 5.70667,2.36 8.1,3.58 1.6,0.81333 4.27333,2.07 8.02,3.77 0.3,0.13333 0.54667,0.0867 0.74,-0.14 0.17333,-0.19333 0.18,-0.46333 0.02,-0.81 l 8.68,3.89 c 0.6568,0.27478 0.4415,1.25558 -0.27,1.23 -5.44,-0.0267 -13.08,-0.14667 -22.92,-0.36 -7.63333,-0.16 -14.07333,-0.67 -19.32,-1.53 -6.16,-1.01333 -12.50333,-2.3 -19.03,-3.86 -9.13,-2.18 -19.52,-6.54 -25.49,-13.27 -2.96,-3.34667 -5.09,-5.88 -6.39,-7.6 -8.48,-11.2 -7.61,-25.49 4.14,-33.89 1.18667,-0.84667 2.02333,-1.47667 2.51,-1.89 0.0956,-0.10344 -0.004,-0.26742 -0.14,-0.23 -10.24,4.16 -17.79,14.32 -16.28,25.74 1.27333,9.54667 5.44333,17.59333 12.51,24.14 -0.38,-0.14667 -0.58,-0.15667 -0.6,-0.03 -0.06,0.31333 0.0367,0.56333 0.29,0.75 10.10667,7.62667 21.27667,11.88667 33.51,12.78 3.54,0.57333 7.11,1.17333 10.71,1.8 9.13,1.58 17.92,1.38 26.57,3.31 3.8,0.84667 7.00333,2.21667 9.61,4.11 0.5307,0.39748 0.26278,1.2414 -0.4,1.26 -4.39,0.03 -23.75,-1 -22.16,5.15 0.94,3.63333 1.52333,6.22333 1.75,7.77 1.34,9.35 -1.34,20.43 -9.23,26.28 -4.9,3.63333 -9.84333,6.99 -14.83,10.07 -0.17174,0.0943 -0.13215,0.35165 0.06,0.39 3.26,0.8 10.98,4.45 9.85,8.78 -0.11823,0.46759 -0.63232,0.71263 -1.07,0.51 -5.05,-2.33 -9.57,-3.29 -15.88,-3.17 -0.57333,0.0133 -6.20667,0.0667 -16.9,0.16 -2.86667,0.0267 -5.89333,1.09333 -9.08,3.2 -0.50262,0.33308 -1.16312,-0.0828 -1.08,-0.68 l 0.04,-0.34 c 0.129,-0.94872 0.59314,-1.82385 1.31,-2.47 3.08667,-2.78 6.52667,-4.22 10.32,-4.32 5.14,-0.13333 8.20333,-0.28 9.19,-0.44 0.57615,-0.0928 1.1334,-0.27855 1.65,-0.55 5.68,-2.96 8.65,-8.19 10.26,-14.3 0.26667,-1.00667 0.42,-2.60667 0.46,-4.8 0.0267,-1.62667 0.17,-3.23 0.43,-4.81 0.34667,-4.42667 -0.8,-8.54 -3.44,-12.34 -3.78,-5.44 -9.93,-9.2 -16,-12.08 -0.29246,-0.13958 -0.60099,-0.2469 -0.92,-0.32 -5.85333,-1.40667 -9.34333,-2.3 -10.47,-2.68 -5.36667,-1.78 -10.24667,-3.83667 -14.64,-6.17 -2.28667,-1.21333 -5.14667,-3.23 -8.58,-6.05 -2.64667,-2.18 -5.34333,-4.41667 -8.09,-6.71 -7.54,-10.08667 -12.23333,-21.44 -14.08,-34.06 -0.62667,-4.27333 -0.8,-8.36667 -0.52,-12.28 0.35,-4.89 -0.09,-10.63 0.75,-16.4 3.42,-23.54 17.26,-55.46 43,-61.36 0.29268,-0.071 0.42724,-0.40744 0.26,-0.65 -0.71,-1.06 -2.15,-2.27 -3.19,-3.78 -1.94,-2.81 -5.21,-9.91 -9.66,-13.46 -0.65333,-0.52667 -1.85333,-0.96667 -3.6,-1.32 -9.62,-1.93 -4.47,-15.98 4.52,-11.15 2.69,1.45 4.38,9.76 5.01,11.46 2.36,6.33333 5.19333,11.58333 8.5,15.75 0.18,0.22667 0.31667,0.34 0.41,0.34 0.29068,-0.006 0.50326,-0.27623 0.44,-0.56 -1.33333,-5.70667 -2.37,-11.23667 -3.11,-16.59 -0.63,-4.48 -1.81,-6.64 -2.95,-10.87 -1.66,-6.12 3.68,-7.97 8.46,-6.55 1.28493,0.37766 2.24941,1.5647 2.47,3.04 0.28,1.82667 -0.05,3.71333 -0.99,5.66 -1.45333,3.04 -2.5,6.09 -3.14,9.15 -0.0861,0.4237 -0.0996,0.85988 -0.04,1.29 l 2.33,15.88 c 0.0607,0.34031 0.53739,0.37011 0.64,0.04 0.87,-2.9 0.69,-6.42 1.38,-9.05 2.53333,-9.65333 4.52667,-16.07 5.98,-19.25 3.17,-6.93 13.55,-4.57 13.22,3.29 -0.12,2.7 -2.7,5.25 -5.59,5.28 -0.42667,0.007 -1.31333,0.08 -2.66,0.22 -0.45588,0.0463 -0.89717,0.17868 -1.3,0.39 -6.2,3.25 -7.62,14.81 -7.26,20.76 0.0429,0.68277 0.62674,1.20419 1.31,1.17 4.38,-0.22 7.95333,1.12333 10.72,4.03 1.54667,1.62 2.91667,2.90333 4.11,3.85 5.46667,4.32667 9.21333,7.32333 11.24,8.99 1.90667,1.56 2.87667,3.46 2.91,5.7 z m -17.98,-8.21 c -4.24,-2.86667 -8.5,-5.14 -12.78,-6.82 -3.01,-1.18 -7.86,-0.88 -8.41,2.93 -0.43,2.95 1.3,5.32 4.29,5.4 4.96667,0.14 10.57,-0.23 16.81,-1.11 0.19829,-0.03 0.25634,-0.28797 0.09,-0.4 z m 12.93,131.6 c -0.12,0.94667 -0.10333,1.55333 0.05,1.82 1.36,2.36 2.36333,4.87 3.01,7.53 0.13252,0.54998 0.17974,1.1166 0.14,1.68 -0.42,6.31333 -0.33333,12.68 0.26,19.1 l -0.79,5.03 c -0.0217,0.17111 0.1774,0.28031 0.31,0.17 7.15,-5.74 11.25,-11.73 11.75,-21.05 0.51,-9.7 -6.61,-14.06 -15.12,-16.06 -0.31295,-0.0753 -0.55987,0.26659 -0.39,0.54 z"
         data-c-fill="562824"
         id="path77"
         sodipodi:nodetypes="cccccccccccccccsccccccccccccccccccccccccccccccccccccccccccccccccccccccccccccccccccccccccccccccccccccccccccccccccccccccccccccccccccccccccccccccccc"
         style="stroke-width:0.999539;stroke-dasharray:none" />
      <path
         fill="#f4eada"
         d="m 485.16214,380.85261 c 0.16634,0.11203 0.10829,0.37001 -0.09,0.4 -6.24,0.88 -11.84333,1.25 -16.81,1.11 -2.99,-0.08 -4.72,-2.45 -4.29,-5.4 0.55,-3.81 5.4,-4.11 8.41,-2.93 4.28,1.68 8.54,3.95333 12.78,6.82 z"
         data-c-fill="f4eada"
         fill-opacity="0"
         id="path78"
         sodipodi:nodetypes="cccccc"
         style="stroke-width:0.999539;stroke-dasharray:none" />
      <path
         fill="#562824"
         d="m 503.14214,389.06261 0.02,0.6 c 0.032,0.97285 -1.03933,1.58342 -1.86,1.06 -4.32667,-2.74667 -8.97333,-4.04667 -13.94,-3.9 -0.44667,0.007 -3.26667,0.65333 -8.46,1.94 -3.7,0.92 -8.1,1.26667 -13.2,1.04 -3.24667,-0.14 -6.49333,0.72667 -9.74,2.6 1.02,-1.66667 2.81333,-2.64667 5.38,-2.94 3.64,-0.41333 5.46667,-0.62 5.48,-0.62 2.34,0.0467 4.98333,-0.04 7.93,-0.26 0.9,-0.0733 3.47333,-0.61333 7.72,-1.62 4.59333,-1.09333 9.12333,-1.04333 13.59,0.15 0.33102,0.0861 0.6455,0.22811 0.93,0.42 2.05333,1.37333 4.10333,1.88333 6.15,1.53 z m 49.09,90.37 c -8.01333,-8.27333 -16.6,-14.86667 -25.76,-19.78 -3.23333,-1.74 -7.35667,-3.28 -12.37,-4.62 3.14667,-0.17333 6.18333,0.46667 9.11,1.92 4.29,2.14 10.72,5.72 15.28,9.15 0.74667,0.56 4.78,3.95333 12.1,10.18 1.48,1.26 2.02667,2.31 1.64,3.15 z m -41.23,-21 c 11.75333,5.78 21.80667,11.87667 30.16,18.29 3.07333,2.36 6.76,5.91 11.06,10.65 -0.007,0.26 -0.0833,0.42333 -0.23,0.49 -0.24,0.12 -0.46,0.0833 -0.66,-0.11 -5.44,-5.23 -8.65,-8.9 -13.74,-12.48 -6.75333,-4.75333 -11.26667,-7.75 -13.54,-8.99 -6.14667,-3.34667 -10.49667,-5.96333 -13.05,-7.85 z m 38.2,31.88 c -13.74667,-7.48667 -27.92,-13.4 -42.52,-17.74 -0.14,-0.20667 -0.16,-0.34667 -0.06,-0.42 0.36667,-0.24 0.76,-0.29333 1.18,-0.16 6.96,2.19333 13.88333,4.54 20.77,7.04 5.9,2.14667 12.77667,5.90667 20.63,11.28 z m -6.27,3.36 c 0.16,0.34667 0.15333,0.61667 -0.02,0.81 -0.19333,0.22667 -0.44,0.27333 -0.74,0.14 -3.74667,-1.7 -6.42,-2.95667 -8.02,-3.77 -2.39333,-1.22 -5.09333,-2.41333 -8.1,-3.58 -12.02,-4.66 -20.04667,-7.72 -24.08,-9.18 -3.12667,-1.13333 -5.7,-2.59333 -7.72,-4.38 z m -82,-7.63 c 9.69333,6.86 20.76,11.36 33.2,13.5 -12.23333,-0.89333 -23.40333,-5.15333 -33.51,-12.78 -0.25333,-0.18667 -0.35,-0.43667 -0.29,-0.75 0.02,-0.12667 0.22,-0.11667 0.6,0.03 z m 34.78,50.41 c -0.64667,-5.20667 -2.21333,-9.40333 -4.7,-12.59 -4.69,-6 -12.3,-10.53 -20.15,-12.36 -14.09,-3.29 -28.28,-9.77 -37.29,-21.4 2.74667,2.29333 5.44333,4.53 8.09,6.71 3.43333,2.82 6.29333,4.83667 8.58,6.05 4.39333,2.33333 9.27333,4.39 14.64,6.17 1.12667,0.38 4.61667,1.27333 10.47,2.68 0.31901,0.0731 0.62754,0.18042 0.92,0.32 6.07,2.88 12.22,6.64 16,12.08 2.64,3.8 3.78667,7.91333 3.44,12.34 z"
         data-c-fill="170c09"
         fill-opacity="1"
         id="path79"
         sodipodi:nodetypes="ccccccccccccccccccccccccccccccccccccccccccccccccccccccccccc"
         style="stroke-width:0.999539;stroke-dasharray:none" />
      <path
         fill="#562824"
         d="m 630.13214,558.46261 c 0.52667,0.0467 0.80333,0.0433 0.83,-0.01 0.19195,-0.39352 -0.0734,-0.85664 -0.51,-0.89 l -15.03,-1.21 c -0.32581,-0.0266 -0.64754,-0.0869 -0.96,-0.18 -3.28,-1.04 -5.8,-1.43 -8.79,-3.22 -4.47333,-2.68667 -8.16333,-6.22667 -11.07,-10.62 -0.28,-0.42 -0.62,-0.53667 -1.02,-0.35 -0.0733,0.04 -0.13333,0.2 -0.18,0.48 -4.11,-4.75 -6.32,-8.8 -9.92,-14.95 -1.87333,-3.21333 -3.57333,-5.77333 -5.1,-7.68 -3.60667,-4.50667 -5.56,-6.90667 -5.86,-7.2 -3.03333,-3.00667 -5.45333,-5.93 -7.26,-8.77 -0.55664,-0.85948 0.39824,-1.89516 1.3,-1.41 5.84,3.12 11.31,5.56 18.24,7.57 17.39,5.04 35.31,8.49 46.16,24.61 2.66,3.94 4.04,8.22333 4.14,12.85 0.002,0.4401 -0.48768,0.70257 -0.84,0.45 l -2.43,-1.69 c -0.46616,-0.33002 -1.08244,0.12877 -0.9,0.67 1.05,3.13 1.76,8.28 4.44,11.29 0.34354,0.3881 0.0875,1.00137 -0.43,1.03 -1.7,0.0933 -3.30333,-0.16333 -4.81,-0.77 z m -48.69,-43.69 c 1.10667,1.81333 5.69667,8.47667 13.77,19.99 4.13,5.89 9.48,11.96 17.27,12.57 4.96667,0.38667 7.51667,-1.94 7.65,-6.98 0.17333,-6.49333 -2.62667,-11.39667 -8.4,-14.71 -7.38,-4.24 -17.33333,-8.05667 -29.86,-11.45 -0.33836,-0.0864 -0.61098,0.28134 -0.43,0.58 z m -35.23,-7.08 c -0.49916,-0.42451 -0.34026,-1.23035 0.28,-1.42 4.47,-1.4 19.49,11.36 23.38,14.74 4.21333,3.65333 8.31667,8.19 12.31,13.61 5.82667,7.9 8.96,17.49 9.4,28.77 0.0867,2.23333 -0.49333,5.72333 -1.74,10.47 -1.52,5.77333 -4.66,10.75 -9.42,14.93 -0.64892,0.56977 -1.61213,0.59501 -2.29,0.06 -10.15,-7.98 -18.61,-20.63 -19.23,-33.67 -0.12667,-2.71333 -0.18,-7.21333 -0.16,-13.5 0.02,-6.44 -0.26,-10.92333 -0.84,-13.45 -1.74,-7.62 -5.49,-15.37 -11.69,-20.54 z m 18.25,16.21 c 0.06,1.6 0.49667,5.45 1.31,11.55 0.52,3.94 -0.03,8.68 -0.27,13.93 -0.11333,2.65333 0.0333,4.84667 0.44,6.58 1.44,6.12 4.83,10.91 11.14,12.64 1.10667,0.3 2.32,-0.24667 3.64,-1.64 2.84667,-2.99333 4.07,-6.54333 3.67,-10.65 -1.2,-12.39 -10.16,-24.94 -19.47,-32.64 -0.18784,-0.15832 -0.47395,-0.0153 -0.46,0.23 z"
         data-c-fill="562824"
         id="path80"
         sodipodi:nodetypes="ccccccccccccccccccccccccccccccccccccscccccccccccccc"
         style="stroke-width:0.999539;stroke-dasharray:none" />
      <path
         fill="#f4eada"
         d="m 501.55214,542.58261 c 0.81333,-7.90667 1.01667,-14.45333 0.61,-19.64 -0.27333,-3.37333 -1.63,-6.87 -4.07,-10.49 l -0.78,-1.24 c -0.16987,-0.27341 0.077,-0.6153 0.39,-0.54 8.51,2 15.63,6.36 15.12,16.06 -0.5,9.32 -4.6,15.31 -11.75,21.05 -0.1326,0.11031 -0.33173,10e-4 -0.31,-0.17 z"
         data-c-fill="f4eada"
         fill-opacity="0"
         id="path81"
         sodipodi:nodetypes="ccccccccc"
         style="stroke-width:0.999539;stroke-dasharray:none" />
      <path
         fill="#562824"
         d="m 498.09214,512.45261 c 2.44,3.62 3.79667,7.11667 4.07,10.49 0.40667,5.18667 0.20333,11.73333 -0.61,19.64 -0.59333,-6.42 -0.68,-12.78667 -0.26,-19.1 0.0397,-0.5634 -0.007,-1.13002 -0.14,-1.68 -0.64667,-2.66 -1.65,-5.17 -3.01,-7.53 -0.15333,-0.26667 -0.17,-0.87333 -0.05,-1.82 z"
         data-c-fill="170c09"
         fill-opacity="1"
         id="path82"
         sodipodi:nodetypes="ccccccc"
         style="stroke-width:0.999539;stroke-dasharray:none" />
      <path
         fill="#f4eada"
         d="m 581.87214,514.19261 c 12.52667,3.39333 22.48,7.21 29.86,11.45 5.77333,3.31333 8.57333,8.21667 8.4,14.71 -0.13333,5.04 -2.68333,7.36667 -7.65,6.98 -7.79,-0.61 -13.14,-6.68 -17.27,-12.57 -8.07333,-11.51333 -12.66333,-18.17667 -13.77,-19.99 -0.18098,-0.29866 0.0916,-0.66637 0.43,-0.58 z m 17.81,10.78 c -0.61061,0.13917 -1.02093,0.74182 -0.96,1.41 0.52,5.41 3.21,11.25 8.36,13.53 3.26,1.44 6.76,0.02 7.11,-3.69 0.54,-5.85 -7.88,-9.56 -12.72,-11.03 -0.79333,-0.24667 -1.39,-0.32 -1.79,-0.22 z"
         data-c-fill="f4eada"
         fill-opacity="0"
         id="path83"
         sodipodi:nodetypes="ccccccccccccc"
         style="stroke-width:0.999539;stroke-dasharray:none" />
      <path
         fill="#562824"
         d="m 553.05214,549.23261 c -0.21333,-0.0867 -0.32667,-0.13667 -0.34,-0.15 -0.14318,-0.15724 -0.40476,-0.0526 -0.4,0.16 -0.10667,4.12667 -0.12,7.15667 -0.04,9.09 0.6,13.84 -12.41,25.06 -24,29.82 -0.18,0.08 -0.24,0.22 -0.3,0.36 -0.0304,0.0785 -0.01,0.164 0.05,0.21 0.0667,0.0533 0.14333,0.14333 0.23,0.27 -4.53333,1.37333 -9.89,2.07 -16.07,2.09 -2.16,0.007 -3.71333,-0.28333 -4.66,-0.87 -0.21262,-0.1369 -0.18992,-0.45471 0.04,-0.56 1.26667,-0.54667 2.09,-1.33 2.47,-2.35 0.95,-2.56 1.8,-6.17 1.93,-9.15 0.19333,-4.44 0.64667,-8.25333 1.36,-11.44 1.46,-6.53333 4.90333,-12.24333 10.33,-17.13 5.68667,-5.12 10.35667,-10.49667 14.01,-16.13 1.54667,-2.38667 2.62667,-5.17 3.24,-8.35 0.0331,-0.18549 0.0365,-0.37786 0.01,-0.57 l -0.83,-5.68 c -0.0753,-0.507 0.32775,-0.95807 0.84,-0.94 1.02,0.04 1.87,0.55333 2.55,1.54 6.02,8.77 8.46,19.55 9.58,29.78 z m -10.3,-12.08 c -1.1,2.16 -2.58667,4.28667 -4.46,6.38 -5.9,6.58 -10.12,10.51 -13.25,16.87 -2.24667,4.56667 -1.56333,9.39667 2.05,14.49 0.30388,0.43002 0.78962,0.69865 1.32,0.73 6.68,0.38667 11.62,-2.54 14.82,-8.78 4.8,-9.37 3.5,-20.05 0.29,-29.63 -0.11848,-0.35006 -0.59872,-0.38748 -0.77,-0.06 z"
         data-c-fill="562824"
         id="path84"
         sodipodi:nodetypes="cccccccccccccccccccccccccccccc"
         style="stroke-width:0.999539;stroke-dasharray:none" />
      <path
         fill="#f4eada"
         d="m 564.46214,523.90261 c -0.014,-0.24526 0.27216,-0.38832 0.46,-0.23 9.31,7.7 18.27,20.25 19.47,32.64 0.4,4.10667 -0.82333,7.65667 -3.67,10.65 -1.32,1.39333 -2.53333,1.94 -3.64,1.64 -6.31,-1.73 -9.7,-6.52 -11.14,-12.64 -0.40667,-1.73333 -0.55333,-3.92667 -0.44,-6.58 0.24,-5.25 0.79,-9.99 0.27,-13.93 -0.81333,-6.1 -1.25,-9.95 -1.31,-11.55 z m 8.21,16.4 c -3.16,0.93 -3.37,12.23 -3.1,15.36 0.44,5.2 7.17,7.8 9.69,2.33 0.83333,-1.78667 1.15667,-3.23 0.97,-4.33 -0.82667,-4.89333 -2.99667,-9.25 -6.51,-13.07 -0.26875,-0.29214 -0.67735,-0.40499 -1.05,-0.29 z"
         data-c-fill="f4eada"
         fill-opacity="0"
         id="path85"
         sodipodi:nodetypes="cccccccccccccsc"
         style="stroke-width:0.999539;stroke-dasharray:none" />
      <path
         fill="#562824"
         d="m 599.68214,524.97261 c 0.4,-0.1 0.99667,-0.0267 1.79,0.22 4.84,1.47 13.26,5.18 12.72,11.03 -0.35,3.71 -3.85,5.13 -7.11,3.69 -5.15,-2.28 -7.84,-8.12 -8.36,-13.53 -0.0609,-0.66818 0.34939,-1.27083 0.96,-1.41 z"
         data-c-fill="562824"
         id="path86"
         sodipodi:nodetypes="cccccc"
         style="stroke-width:0.999539;stroke-dasharray:none" />
      <path
         fill="#f4eada"
         d="m 542.75214,537.15261 c 0.17128,-0.32748 0.65152,-0.29006 0.77,0.06 3.21,9.58 4.51,20.26 -0.29,29.63 -3.2,6.24 -8.14,9.16667 -14.82,8.78 -0.53038,-0.0313 -1.01612,-0.29998 -1.32,-0.73 -3.61333,-5.09333 -4.29667,-9.92333 -2.05,-14.49 3.13,-6.36 7.35,-10.29 13.25,-16.87 1.87333,-2.09333 3.36,-4.22 4.46,-6.38 z m -4.27,14.55 c -0.42,0.0667 -0.96,0.37 -1.62,0.91 -4.01,3.28 -10.55,10.09 -7.76,15.43 1.78,3.38 5.66,3.36 8.19,0.72 3.99,-4.17 4.27,-10.76 2.65,-16.09 -0.20183,-0.65759 -0.82461,-1.07135 -1.46,-0.97 z"
         data-c-fill="f4eada"
         fill-opacity="0"
         id="path87"
         sodipodi:nodetypes="cccccccccccccc"
         style="stroke-width:0.999539;stroke-dasharray:none" />
      <path
         fill="#562824"
         d="m 572.67214,540.30261 c 0.37265,-0.11499 0.78125,-0.002 1.05,0.29 3.51333,3.82 5.68333,8.17667 6.51,13.07 0.18667,1.1 -0.13667,2.54333 -0.97,4.33 -2.52,5.47 -9.25,2.87 -9.69,-2.33 -0.27,-3.13 -0.06,-14.43 3.1,-15.36 z"
         data-c-fill="562824"
         id="path88"
         sodipodi:nodetypes="cccccc"
         style="stroke-width:0.999539;stroke-dasharray:none" />
      <path
         fill="#562824"
         d="m 630.13214,558.46261 c -6.45,-0.8 -13.56,-0.26 -19.86,-2.5 -6.93,-2.48 -12.65,-7.51 -16.87,-13.5 0.0467,-0.28 0.10667,-0.44 0.18,-0.48 0.4,-0.18667 0.74,-0.07 1.02,0.35 2.90667,4.39333 6.59667,7.93333 11.07,10.62 2.99,1.79 5.51,2.18 8.79,3.22 0.31246,0.0931 0.63419,0.15342 0.96,0.18 l 15.03,1.21 c 0.43657,0.0334 0.70195,0.49648 0.51,0.89 -0.0267,0.0533 -0.30333,0.0567 -0.83,0.01 z m -77.08,-9.23 c 0.0667,3.05333 0.0833,6.12 0.05,9.2 -0.15,14.59 -12.12,25.74 -24.85,30.56 -0.0867,-0.12667 -0.16333,-0.21667 -0.23,-0.27 -0.06,-0.046 -0.0804,-0.13153 -0.05,-0.21 0.06,-0.14 0.12,-0.28 0.3,-0.36 11.59,-4.76 24.6,-15.98 24,-29.82 -0.08,-1.93333 -0.0667,-4.96333 0.04,-9.09 -0.005,-0.21261 0.25682,-0.31724 0.4,-0.16 0.0133,0.0133 0.12667,0.0633 0.34,0.15 z"
         data-c-fill="170c09"
         fill-opacity="1"
         id="path89"
         sodipodi:nodetypes="ccccccccccccccccccccc"
         style="stroke-width:0.999539;stroke-dasharray:none" />
      <path
         fill="#562824"
         d="m 538.48214,551.70261 c 0.63539,-0.10135 1.25817,0.31241 1.46,0.97 1.62,5.33 1.34,11.92 -2.65,16.09 -2.53,2.64 -6.41,2.66 -8.19,-0.72 -2.79,-5.34 3.75,-12.15 7.76,-15.43 0.66,-0.54 1.2,-0.84333 1.62,-0.91 z m 105.67,82.43 c -10.86,-0.06 -22.18,-3.01 -30.5,-10.02 -6.37333,-5.36667 -10.75333,-12.18 -13.14,-20.44 -2.08,-7.17 -3.72,-14.56 -3.79,-22.11 -0.06,-6.95 -0.37,-13.28 1.06,-19.71 0.10445,-0.44815 0.61456,-0.66533 1.01,-0.43 6.43,3.82 12.93,6.92 20.81,10.18 5.08,2.1 8.78,4.14333 11.1,6.13 4.51333,3.85333 7.99333,8.19 10.44,13.01 4.41,8.7 3.66,18.59 1.91,29 -0.45333,2.71333 -0.59,6.46333 -0.41,11.25 -1.3e-4,0.14851 0.053,0.29363 0.15,0.41 l 1.67,2.1 c 0.20067,0.25702 0.0161,0.63217 -0.31,0.63 z m -41.32,-59.85 c -0.26,4.60667 0.15333,9.08333 1.24,13.43 1.65333,6.64 3.56333,12.01333 5.73,16.12 2.71333,5.16667 6.08667,8.63 10.12,10.39 0.12,0.0533 1.17,0.40667 3.15,1.06 2.19,0.73 4.99,2.13 6.37,0.16 1.62667,-2.32667 3.12667,-4.98333 4.5,-7.97 0.15073,-0.32714 0.20949,-0.6901 0.17,-1.05 -0.12667,-1.33333 -0.0233,-2.61333 0.31,-3.84 0.32,-1.2 0.31,-2.62 -0.03,-4.26 -1.8,-8.7 -6.62333,-15.16 -14.47,-19.38 -2.20667,-1.19333 -4.25,-2.12333 -6.13,-2.79 -1.70667,-0.60667 -4.97,-1.51333 -9.79,-2.72 -0.57477,-0.14641 -1.13949,0.26386 -1.17,0.85 z"
         data-c-fill="562824"
         id="path90"
         sodipodi:nodetypes="cccccccccccccccccccccccccccccccccc"
         style="stroke-width:0.999539;stroke-dasharray:none" />
      <path
         fill="#562824"
         d="m 540.80214,636.75261 c 1.35333,-2.68 2.68333,-5.28667 3.99,-7.82 1.58,-3.06 2.80667,-5.70667 3.68,-7.94 3.96667,-10.12667 6.43667,-16.74667 7.41,-19.86 2.37333,-7.55333 3.35333,-15.37 2.94,-23.45 -0.0733,-1.54667 -0.44667,-2.97 -1.12,-4.27 -0.18877,-0.37283 -0.72123,-0.37283 -0.91,0 -1.77333,3.42667 -4.14667,6.29333 -7.12,8.6 2.89333,-3.38 5.35667,-6.98 7.39,-10.8 0.22698,-0.41235 0.83006,-0.3758 0.99,0.06 0.66,1.79 1.42,3.63 1.55,5.64 0.66,9.6 -0.68,18.31 -4.19,27.98 -2.05333,5.65333 -4.47667,11.98667 -7.27,19 -1.88667,4.72 -4.33333,9.00667 -7.34,12.86 z"
         data-c-fill="170c09"
         fill-opacity="1"
         id="path91"
         sodipodi:nodetypes="cccccccccccccc"
         style="stroke-width:0.999539;stroke-dasharray:none" />
      <path
         fill="#562824"
         d="m 540.80214,636.75261 c -2.46,4.22 -6.19,7.58 -11.19,10.08 -3.08667,1.54667 -6.67,2.78667 -10.75,3.72 -8.39333,1.90667 -17.09667,2.63333 -26.11,2.18 -0.32971,-0.021 -0.46662,-0.43174 -0.21,-0.63 2.61,-2.11 3.26,-4.45 4.15,-8.05 1.03,-4.17 0.45,-9.06 0.77,-12.59 1.04,-11.4 6.31333,-20.12667 15.82,-26.18 8.78,-5.6 18.41,-9.71 26.99,-15.84 2.83,-2.02 6.14,-5.09 9.4,-7.43 2.97333,-2.30667 5.34667,-5.17333 7.12,-8.6 0.18877,-0.37283 0.72123,-0.37283 0.91,0 0.67333,1.3 1.04667,2.72333 1.12,4.27 0.41333,8.08 -0.56667,15.89667 -2.94,23.45 -0.97333,3.11333 -3.44333,9.73333 -7.41,19.86 -0.87333,2.23333 -2.1,4.88 -3.68,7.94 -1.30667,2.53333 -2.63667,5.14 -3.99,7.82 z m 7.21,-41.29 c 0.0667,-0.78667 -0.12333,-1.22333 -0.57,-1.31 0.12667,-0.24667 0.13,-0.41333 0.01,-0.5 -0.23333,-0.18 -0.47667,-0.18333 -0.73,-0.01 -7.57,5.13 -13.8,8.39 -20.83,12.51 -5.53333,3.24667 -8.79,5.33 -9.77,6.25 -7.23,6.79 -6.89,14.79 -4.86,24.26 0.0781,0.37634 0.2745,0.71652 0.56,0.97 0.70667,0.64 1.75333,0.96667 3.14,0.98 7.66,0.09 15.97,-3.21 20.75,-9.64 2.27333,-3.06 3.94667,-6.04667 5.02,-8.96 1.93333,-5.23333 3.12,-8.38667 3.56,-9.46 1.96,-4.77333 3.31,-9.33333 4.05,-13.68 0.10667,-0.62667 -0.003,-1.09667 -0.33,-1.41 z"
         data-c-fill="562824"
         id="path92"
         sodipodi:nodetypes="cccccccccccccccccccccccccccccsc"
         style="stroke-width:0.999539;stroke-dasharray:none" />
      <path
         fill="#562824"
         d="m 602.83214,574.28261 c 0.0305,-0.58614 0.59523,-0.99641 1.17,-0.85 4.82,1.20667 8.08333,2.11333 9.79,2.72 1.88,0.66667 3.92333,1.59667 6.13,2.79 7.84667,4.22 12.67,10.68 14.47,19.38 0.34,1.64 0.35,3.06 0.03,4.26 -0.33333,1.22667 -0.43667,2.50667 -0.31,3.84 0.0395,0.3599 -0.0193,0.72286 -0.17,1.05 -1.37333,2.98667 -2.87333,5.64333 -4.5,7.97 -1.38,1.97 -4.18,0.57 -6.37,-0.16 -1.98,-0.65333 -3.03,-1.00667 -3.15,-1.06 -4.03333,-1.76 -7.40667,-5.22333 -10.12,-10.39 -2.16667,-4.10667 -4.07667,-9.48 -5.73,-16.12 -1.08667,-4.34667 -1.5,-8.82333 -1.24,-13.43 z m 0.81,0.78 c -0.13333,1.15333 -0.09,2.52667 0.13,4.12 0.89333,6.46667 2.55,12.97 4.97,19.51 3.74,10.1 8.33,15.57 19.04,16.82 0.34451,0.037 0.67709,-0.11768 0.86,-0.4 1.98,-3.00667 3.15,-4.83 3.51,-5.47 1.71333,-3.02667 2.28333,-6.25667 1.71,-9.69 -1.46667,-8.74 -5.76667,-15.13 -12.9,-19.17 -1.61333,-0.91333 -4.24,-2.15333 -7.88,-3.72 -3.08,-1.33333 -5.84333,-2.27333 -8.29,-2.82 -0.55078,-0.1224 -1.08623,0.2594 -1.15,0.82 z"
         data-c-fill="170c09"
         fill-opacity="1"
         id="path93"
         sodipodi:nodetypes="ccccccccccccccccccccccccc"
         style="stroke-width:0.999539;stroke-dasharray:none" />
      <path
         fill="#f4eada"
         d="m 603.64214,575.06261 c 0.0638,-0.5606 0.59922,-0.9424 1.15,-0.82 2.44667,0.54667 5.21,1.48667 8.29,2.82 3.64,1.56667 6.26667,2.80667 7.88,3.72 7.13333,4.04 11.43333,10.43 12.9,19.17 0.57333,3.43333 0.003,6.66333 -1.71,9.69 -0.36,0.64 -1.53,2.46333 -3.51,5.47 -0.18291,0.28232 -0.51549,0.437 -0.86,0.4 -10.71,-1.25 -15.3,-6.72 -19.04,-16.82 -2.42,-6.54 -4.07667,-13.04333 -4.97,-19.51 -0.22,-1.59333 -0.26333,-2.96667 -0.13,-4.12 z m 20.23,29.11 c 1.86667,-1 2.84333,-2.58667 2.93,-4.76 0.3,-7.26 -6.06,-11.91 -12.78,-14.36 -0.12,-0.04 -0.28,0.01 -0.36,0.06 -0.09,0.04 -0.22,0.15 -0.25,0.27 -1.68,6.95 -1.33,14.82 4.88,18.6 1.85333,1.12667 3.71333,1.19 5.58,0.19 z"
         data-c-fill="f4eada"
         fill-opacity="0"
         id="path94"
         sodipodi:nodetypes="cccccccccccscccccs"
         style="stroke-width:0.999539;stroke-dasharray:none" />
      <path
         fill="#562824"
         d="m 613.66214,585.11261 c 0.08,-0.05 0.24,-0.1 0.36,-0.06 6.72,2.45 13.08,7.1 12.78,14.36 -0.0867,2.17333 -1.06333,3.76 -2.93,4.76 -1.86667,1 -3.72667,0.93667 -5.58,-0.19 -6.21,-3.78 -6.56,-11.65 -4.88,-18.6 0.03,-0.12 0.16,-0.23 0.25,-0.27 z"
         data-c-fill="562824"
         id="path95"
         sodipodi:nodetypes="cccsccc"
         style="stroke-width:0.999539;stroke-dasharray:none" />
      <path
         fill="#562824"
         d="m 586.77214,638.67261 c 0.12667,-0.0133 0.21333,-0.0167 0.26,-0.01 0.35594,0.0478 0.53521,0.45527 0.33,0.75 -3.33333,4.66667 -7.78333,7.05 -13.35,7.15 -0.33481,0.007 -0.66462,-0.069 -0.96,-0.22 -1.9,-0.94 -3.29667,-2.12667 -4.19,-3.56 -3.63,-5.81 -4.38,-11.34 -2.67,-18.54 2.07333,-8.74667 5.09,-16.64 9.05,-23.68 0.49034,-0.87664 0.40347,-1.96247 -0.22,-2.75 l -4.42,-5.55 c -0.40489,-0.50576 -1.21293,-0.33596 -1.38,0.29 -1.82,7.08 -4.52333,14.02333 -8.11,20.83 -1.64,3.11333 -3.38667,8.69 -5.24,16.73 0.31333,-5.09333 1.50333,-9.99333 3.57,-14.7 4.6,-10.5 7.67,-16.62 9.41,-25.44 0.0688,-0.38717 0.56563,-0.50834 0.82,-0.2 l 6.64,8.36 c 0.41635,0.51878 0.47198,1.23803 0.14,1.81 -4.82,8.46 -8.12,17.61333 -9.9,27.46 -1.16,6.45 1.36,20.86 11.35,17.79 3.66667,-1.12667 6.62333,-3.3 8.87,-6.52 z"
         data-c-fill="170c09"
         fill-opacity="1"
         id="path96"
         sodipodi:nodetypes="ccccccccccccccccccccc"
         style="stroke-width:0.999539;stroke-dasharray:none" />
      <path
         fill="#562824"
         d="m 586.77214,638.67261 c 2.91,-5.76 3.19,-13.09 2.24,-19.37 -0.66667,-4.45333 -2.54333,-10.55 -5.63,-18.29 -0.12502,-0.31841 -0.0838,-0.67812 0.11,-0.96 l 4.83,-6.93 c 0.49429,-0.69907 1.57347,-0.53305 1.82,0.28 0.02,0.08 1.38,3.65333 4.08,10.72 3.13333,8.21333 4.93333,16.82 5.4,25.82 0.74,14.25 -7.15,21.51 -17.31,29.66 -4.48,3.6 -7.42,6.64 -10.34,11.41 -0.24879,0.41374 -0.85949,0.37918 -1.06,-0.06 -1.43,-3.2 -3.27,-6.17 -5.46,-9.29 -3.84667,-5.49333 -6.71667,-10.45667 -8.61,-14.89 -0.50244,1.18475 -3.87281,-4.39106 -2.68887,-16.97831 2.42629,-12.55998 5.31887,-13.29836 6.95887,-16.41169 3.58667,-6.80667 6.29,-13.75 8.11,-20.83 0.16707,-0.62596 0.97511,-0.79576 1.38,-0.29 l 4.42,5.55 c 0.62347,0.78753 0.71034,1.87336 0.22,2.75 -3.96,7.04 -6.97667,14.93333 -9.05,23.68 -1.71,7.2 -0.96,12.73 2.67,18.54 0.89333,1.43333 2.29,2.62 4.19,3.56 0.29538,0.15103 0.62519,0.22661 0.96,0.22 5.56667,-0.1 10.01667,-2.48333 13.35,-7.15 0.20521,-0.29473 0.0259,-0.70217 -0.33,-0.75 -0.0467,-0.007 -0.13333,-0.003 -0.26,0.01 z"
         data-c-fill="562824"
         id="path97"
         sodipodi:nodetypes="cccccccccccccccccccccccccc"
         style="fill:#552724;fill-opacity:1;stroke-width:0.999539;stroke-dasharray:none" />
      <path
         fill="#562824"
         d="m 547.44214,594.15261 c -6.3,4.25333 -12.79,8.20667 -19.47,11.86 -5.86667,3.20667 -9.64667,5.58 -11.34,7.12 -3.12,2.82667 -4.86667,6.24333 -5.24,10.25 -0.4,4.42 -0.16,8.75333 0.72,13 0.18549,0.88448 0.97164,1.5159 1.88,1.51 11.94,-0.12 20.28667,-5.48 25.04,-16.08 2.41333,-5.38667 5.04667,-12.41667 7.9,-21.09 0.007,-0.0197 0.0133,-0.0433 0.02,-0.07 l 1.06,-5.19 c 0.32667,0.31333 0.43667,0.78333 0.33,1.41 -0.74,4.34667 -2.09,8.90667 -4.05,13.68 -0.44,1.07333 -1.62667,4.22667 -3.56,9.46 -1.07333,2.91333 -2.74667,5.9 -5.02,8.96 -4.78,6.43 -13.09,9.73 -20.75,9.64 -1.38667,-0.0133 -2.43333,-0.34 -3.14,-0.98 -0.2855,-0.25348 -0.48189,-0.59366 -0.56,-0.97 -2.03,-9.47 -2.37,-17.47 4.86,-24.26 0.98,-0.92 4.23667,-3.00333 9.77,-6.25 7.03,-4.12 13.26,-7.38 20.83,-12.51 0.25333,-0.17333 0.49667,-0.17 0.73,0.01 0.12,0.0867 0.11667,0.25333 -0.01,0.5 z"
         data-c-fill="170c09"
         fill-opacity="1"
         id="path98"
         sodipodi:nodetypes="cccccccccccccccccccccc"
         style="stroke-width:0.999539;stroke-dasharray:none" />
      <path
         fill="#f4eada"
         d="m 547.44214,594.15261 c 0.44667,0.0867 0.63667,0.52333 0.57,1.31 l -1.06,5.19 c -0.007,0.0267 -0.0134,0.0503 -0.02,0.07 -2.85333,8.67333 -5.48667,15.70333 -7.9,21.09 -4.75333,10.6 -13.1,15.96 -25.04,16.08 -0.90836,0.006 -1.69451,-0.62552 -1.88,-1.51 -0.88,-4.24667 -1.12,-8.58 -0.72,-13 0.37333,-4.00667 2.12,-7.42333 5.24,-10.25 1.69333,-1.54 5.47333,-3.91333 11.34,-7.12 6.68,-3.65333 13.17,-7.60667 19.47,-11.86 z m -11.97,13.86 c -5.73333,1.83333 -10.38333,4.47333 -13.95,7.92 -2.18,2.11 -4.62,7 -2.54,9.99 0.84667,1.21333 1.59333,1.89667 2.24,2.05 4.3,1.01333 7.8,-0.25333 10.5,-3.8 3.51333,-4.61333 4.93,-9.89333 4.25,-15.84 -0.0333,-0.24259 -0.27392,-0.39658 -0.5,-0.32 z"
         data-c-fill="f4eada"
         fill-opacity="0"
         id="path99"
         sodipodi:nodetypes="cccccccccccccccccc"
         style="stroke-width:0.999539;stroke-dasharray:none" />
      <path
         fill="#562824"
         d="m 535.97214,608.33261 c 0.68,5.94667 -0.73667,11.22667 -4.25,15.84 -2.7,3.54667 -6.2,4.81333 -10.5,3.8 -0.64667,-0.15333 -1.39333,-0.83667 -2.24,-2.05 -2.08,-2.99 0.36,-7.88 2.54,-9.99 3.56667,-3.44667 8.21667,-6.08667 13.95,-7.92 0.22608,-0.0766 0.46669,0.0774 0.5,0.32 z"
         data-c-fill="562824"
         id="path100"
         sodipodi:nodetypes="ccccccc"
         style="stroke-width:0.999539;stroke-dasharray:none" />
      <path
         fill="#562824"
         d="m 579.96214,610.29261 c 0.15333,0.0133 0.36667,0.24667 0.64,0.7 3.6,5.96 6.85,14.18 2.89,20.28 -1.44,2.21333 -3.37667,3.20333 -5.81,2.97 -2.43333,-0.23333 -4.14667,-1.57 -5.14,-4.01 -2.74,-6.74 2.01,-14.2 6.66,-19.37 0.36,-0.39333 0.61333,-0.58333 0.76,-0.57 z m -6.97,18.62 c 1.49,5.83 7.83,5.88 10.46,1.04 0.66,-1.20667 0.93,-3.97 0.81,-8.29 -0.0132,-0.28449 -0.0741,-0.56187 -0.18,-0.82 l -3.5,-8.34 c -0.21943,-0.5164 -0.87606,-0.6691 -1.29,-0.3 -3.14,2.79333 -5.23667,6.38333 -6.29,10.77 -0.49333,2.06667 -0.49667,4.04667 -0.01,5.94 z"
         data-c-fill="170c09"
         fill-opacity="1"
         id="path101"
         sodipodi:nodetypes="cccsccccccccccc"
         style="stroke-width:0.999539;stroke-dasharray:none" />
    </g>
  </g>
</svg>
